<?xml version="1.0" encoding="UTF-8" standalone="no"?>

<svg xmlns="http://www.w3.org/2000/svg" width="800" height="600">
	<!-- matteodv99tn::PrismaticJoint code, info: 500 10 400 300 500 40 210 210 210 100 70 70 70 70 50 60 150 150 150  -->
	<rect x="-250" y="-20" width="500" height="40" style="fill:rgb(210,210,210); stroke-width:2;stroke:rgb(0,0,0)" transform="matrix(1 0 0 1 400 300)" />
	<rect x="-275" y="-30" width="50" height="60" style="fill:rgb(150,150,150); stroke-width:2;stroke:rgb(0,0,0)" transform="matrix(1 0 0 1 400 300)" />
	<rect x="225" y="-30" width="50" height="60" style="fill:rgb(150,150,150); stroke-width:2;stroke:rgb(0,0,0)" transform="matrix(1 0 0 1 400 300)" />
	<rect x="-210" y="-35" width="100" height="70" style="fill:rgb(70,70,70); stroke-width:2;stroke:rgb(0,0,0)" transform="matrix(1 0 0 1 400 300)" />
		<line x1="-275" y1="-30" x2="-225" y2="30" style="stroke:rgb(0,0,0); stroke-width:2" transform="matrix(1 0 0 1 400 300)" />
		<line x1="-275" y1="30" x2="-225" y2="-30" style="stroke:rgb(0,0,0); stroke-width:2" transform="matrix(1 0 0 1 400 300)" />
		<line x1="225" y1="-30" x2="275" y2="30" style="stroke:rgb(0,0,0); stroke-width:2" transform="matrix(1 0 0 1 400 300)" />
		<line x1="225" y1="30" x2="275" y2="-30" style="stroke:rgb(0,0,0); stroke-width:2" transform="matrix(1 0 0 1 400 300)" />
</svg>