<?xml version="1.0" encoding="UTF-8" standalone="no"?>

<svg xmlns="http://www.w3.org/2000/svg" width="800" height="600">
	<!-- matteodv99tn::PrismaticJoint code, info: 500 10 400 300 500 40 210 210 210 100 70 70 70 70 50 60 150 150 150  -->
	<rect x="-250" y="-20" width="500" height="40" style="fill:rgb(210,210,210); stroke-width:2;stroke:rgb(0,0,0)" transform="matrix(1 0 0 1 400 300)" />
	<rect x="-275" y="-30" width="50" height="60" style="fill:rgb(150,150,150); stroke-width:2;stroke:rgb(0,0,0)" transform="matrix(1 0 0 1 400 300)" />
	<rect x="225" y="-30" width="50" height="60" style="fill:rgb(150,150,150); stroke-width:2;stroke:rgb(0,0,0)" transform="matrix(1 0 0 1 400 300)" />
	<rect x="-210" y="-35" width="100" height="70" style="fill:rgb(70,70,70); stroke-width:2;stroke:rgb(0,0,0)" transform="matrix(1 0 0 1 400 300)" />
		<line x1="-275" y1="-30" x2="-225" y2="30" style="stroke:rgb(0,0,0); stroke-width:2" transform="matrix(1 0 0 1 400 300)" />
		<line x1="-275" y1="30" x2="-225" y2="-30" style="stroke:rgb(0,0,0); stroke-width:2" transform="matrix(1 0 0 1 400 300)" />
		<line x1="225" y1="-30" x2="275" y2="30" style="stroke:rgb(0,0,0); stroke-width:2" transform="matrix(1 0 0 1 400 300)" />
		<line x1="225" y1="30" x2="275" y2="-30" style="stroke:rgb(0,0,0); stroke-width:2" transform="matrix(1 0 0 1 400 300)" />
	<style> .annotation { font: italic 13px sans-serif; } </style>
	<text x="-250" y="46" dominant-baseline="middle" text-anchor="middle" class="annotation" transform="matrix(1 0 0 1 400 300)" > 50</text>
		<line x1="-275" y1="51" x2="-225" y2="51" style="stroke:rgb(0,0,0); stroke-width:2" transform="matrix(1 0 0 1 400 300)" />
		<line x1="-275" y1="45" x2="-275" y2="57" style="stroke:rgb(0,0,0); stroke-width:2" transform="matrix(1 0 0 1 400 300)" />
		<line x1="-225" y1="45" x2="-225" y2="57" style="stroke:rgb(0,0,0); stroke-width:2" transform="matrix(1 0 0 1 400 300)" />
	<text x="-160" y="51" dominant-baseline="middle" text-anchor="middle" class="annotation" transform="matrix(1 0 0 1 400 300)" > 100</text>
		<line x1="-210" y1="56" x2="-110" y2="56" style="stroke:rgb(0,0,0); stroke-width:2" transform="matrix(1 0 0 1 400 300)" />
		<line x1="-210" y1="50" x2="-210" y2="62" style="stroke:rgb(0,0,0); stroke-width:2" transform="matrix(1 0 0 1 400 300)" />
		<line x1="-110" y1="50" x2="-110" y2="62" style="stroke:rgb(0,0,0); stroke-width:2" transform="matrix(1 0 0 1 400 300)" />
	<text x="0" y="77.6667" dominant-baseline="middle" text-anchor="middle" class="annotation" transform="matrix(1 0 0 1 400 300)" > 500</text>
		<line x1="-250" y1="82.6667" x2="250" y2="82.6667" style="stroke:rgb(0,0,0); stroke-width:2" transform="matrix(1 0 0 1 400 300)" />
		<line x1="-250" y1="76.6667" x2="-250" y2="88.6667" style="stroke:rgb(0,0,0); stroke-width:2" transform="matrix(1 0 0 1 400 300)" />
		<line x1="250" y1="76.6667" x2="250" y2="88.6667" style="stroke:rgb(0,0,0); stroke-width:2" transform="matrix(1 0 0 1 400 300)" />
	<text x="294" y="0" dominant-baseline="middle" text-anchor="start" class="annotation" transform="matrix(1 0 0 1 400 300)" > 40</text>
		<line x1="291" y1="-20" x2="291" y2="20" style="stroke:rgb(0,0,0); stroke-width:2" transform="matrix(1 0 0 1 400 300)" />
		<line x1="285" y1="-20" x2="297" y2="-20" style="stroke:rgb(0,0,0); stroke-width:2" transform="matrix(1 0 0 1 400 300)" />
		<line x1="285" y1="20" x2="297" y2="20" style="stroke:rgb(0,0,0); stroke-width:2" transform="matrix(1 0 0 1 400 300)" />
	<text x="339" y="0" dominant-baseline="middle" text-anchor="start" class="annotation" transform="matrix(1 0 0 1 400 300)" > 60</text>
		<line x1="336" y1="-30" x2="336" y2="30" style="stroke:rgb(0,0,0); stroke-width:2" transform="matrix(1 0 0 1 400 300)" />
		<line x1="330" y1="-30" x2="342" y2="-30" style="stroke:rgb(0,0,0); stroke-width:2" transform="matrix(1 0 0 1 400 300)" />
		<line x1="330" y1="30" x2="342" y2="30" style="stroke:rgb(0,0,0); stroke-width:2" transform="matrix(1 0 0 1 400 300)" />
	<text x="-91" y="0" dominant-baseline="middle" text-anchor="start" class="annotation" transform="matrix(1 0 0 1 400 300)" > 70</text>
		<line x1="-94" y1="-35" x2="-94" y2="35" style="stroke:rgb(0,0,0); stroke-width:2" transform="matrix(1 0 0 1 400 300)" />
		<line x1="-100" y1="-35" x2="-88" y2="-35" style="stroke:rgb(0,0,0); stroke-width:2" transform="matrix(1 0 0 1 400 300)" />
		<line x1="-100" y1="35" x2="-88" y2="35" style="stroke:rgb(0,0,0); stroke-width:2" transform="matrix(1 0 0 1 400 300)" />
</svg>