<?xml version="1.0" encoding="UTF-8" standalone="no"?>

<svg xmlns="http://www.w3.org/2000/svg" width="800" height="600"> 
	<rect  x = "-135.000000" y="-6.666667" width="270.000000" height="13.333333" style="fill:rgb(210,210,210);stroke-width:1;stroke:rgb(0,0,0)" transform="matrix(1.000000 0.000000 -0.000000 1.000000 235.000000 500.000000)"  /> 
	<rect  x = "-155.000000" y="-20.000000" width="40.000000" height="40.000000" style="fill:rgb(130,130,130);stroke-width:3;stroke:rgb(0,0,0)" transform="matrix(1.000000 0.000000 -0.000000 1.000000 235.000000 500.000000)"  /> 
	<rect  x = "115.000000" y="-20.000000" width="40.000000" height="40.000000" style="fill:rgb(130,130,130);stroke-width:3;stroke:rgb(0,0,0)" transform="matrix(1.000000 0.000000 -0.000000 1.000000 235.000000 500.000000)"  /> 
	<rect  x = "-82.500000" y="-20.000000" width="40.000000" height="40.000000" style="fill:rgb(130,130,130);stroke-width:3;stroke:rgb(0,0,0)" transform="matrix(1.000000 0.000000 -0.000000 1.000000 235.000000 500.000000)"  /> 
	<rect  x = "-135.000000" y="-6.666667" width="270.000000" height="13.333333" style="fill:rgb(210,210,210);stroke-width:1;stroke:rgb(0,0,0)" transform="matrix(1.000000 0.000000 -0.000000 1.000000 565.000000 500.000000)"  /> 
	<rect  x = "-155.000000" y="-20.000000" width="40.000000" height="40.000000" style="fill:rgb(130,130,130);stroke-width:3;stroke:rgb(0,0,0)" transform="matrix(1.000000 0.000000 -0.000000 1.000000 565.000000 500.000000)"  /> 
	<rect  x = "115.000000" y="-20.000000" width="40.000000" height="40.000000" style="fill:rgb(130,130,130);stroke-width:3;stroke:rgb(0,0,0)" transform="matrix(1.000000 0.000000 -0.000000 1.000000 565.000000 500.000000)"  /> 
	<rect  x = "-82.500000" y="-20.000000" width="40.000000" height="40.000000" style="fill:rgb(130,130,130);stroke-width:3;stroke:rgb(0,0,0)" transform="matrix(1.000000 0.000000 -0.000000 1.000000 565.000000 500.000000)"  /> 
<rect  x="161.833328" y="270.000000" width="21.333334" height="30.000000" style="fill:rgb(200,200,200);stroke-width:3;stroke:rgb(0,0,0)" /> 
<rect  x="156.500000" y="300.000000" width="32.000000" height="200.000000" style="fill:rgb(0,200,0);stroke-width:3;stroke:rgb(0,0,0)" /> 
<rect  x="491.833344" y="200.000000" width="21.333334" height="100.000000" style="fill:rgb(200,200,200);stroke-width:3;stroke:rgb(0,0,0)" /> 
<rect  x="486.500000" y="300.000000" width="32.000000" height="200.000000" style="fill:rgb(0,200,0);stroke-width:3;stroke:rgb(0,0,0)" /> 
<g transform="rotate(-11.976132,172.500000,270.000000)"> 
<rect  x="122.500000" y="262.500000" width="510.000000" height="15.000000" style="fill:rgb(0,120,0);stroke-width:3;stroke:rgb(200,200,200)" /> 
</g> 
<circle cx="172.500000" cy="270.000000" r="20" stroke="black" stroke-width="3" fill="lightgrey" /> 
<circle cx="502.500000" cy="200.000000" r="20" stroke="black" stroke-width="3" fill="lightgrey" /> 
</svg>