<?xml version="1.0" encoding="UTF-8" standalone="no"?>

<svg xmlns="http://www.w3.org/2000/svg" width="800" height="600">
	<rect  x = "-250.000000" y="-8.333333" width="500.000000" height="16.666666" style="fill:rgb(210,210,210);stroke-width:1;stroke:rgb(0,0,0)" transform="matrix(1.000000 0.000000 -0.000000 1.000000 400.000000 300.000000)"  /> 
	<rect  x = "-275.000000" y="-25.000000" width="50.000000" height="50.000000" style="fill:rgb(130,130,130);stroke-width:3;stroke:rgb(0,0,0)" transform="matrix(1.000000 0.000000 -0.000000 1.000000 400.000000 300.000000)"  /> 
	<rect  x = "225.000000" y="-25.000000" width="50.000000" height="50.000000" style="fill:rgb(130,130,130);stroke-width:3;stroke:rgb(0,0,0)" transform="matrix(1.000000 0.000000 -0.000000 1.000000 400.000000 300.000000)"  /> 
	<rect  x = "-175.000000" y="-25.000000" width="50.000000" height="50.000000" style="fill:rgb(130,130,130);stroke-width:3;stroke:rgb(0,0,0)" transform="matrix(1.000000 0.000000 -0.000000 1.000000 400.000000 300.000000)"  /> 

	<style> .stileannotazioni { font: italic 13px sans-serif; } </style>

	<text x="-250.000000" y="-41.000000" dominant-baseline="middle" text-anchor="middle" class="stileannotazioni" transform="matrix(1.000000 0.000000 -0.000000 1.000000 400.000000 300.000000)"  >50.00</text>
		 <line x1="-275.000000" y1="-35.000000" x2="-225.000000" y2="-35.000000" style="stroke:rgb(0,0,0);stroke-width:2" transform="matrix(1.000000 0.000000 -0.000000 1.000000 400.000000 300.000000)" />
		 <line x1="-275.000000" y1="-40.000000" x2="-275.000000" y2="-30.000000" style="stroke:rgb(0,0,0);stroke-width:2" transform="matrix(1.000000 0.000000 -0.000000 1.000000 400.000000 300.000000)" />
		 <line x1="-225.000000" y1="-40.000000" x2="-225.000000" y2="-30.000000" style="stroke:rgb(0,0,0);stroke-width:2" transform="matrix(1.000000 0.000000 -0.000000 1.000000 400.000000 300.000000)" />
	<text x="250.000000" y="-41.000000" dominant-baseline="middle" text-anchor="middle" class="stileannotazioni" transform="matrix(1.000000 0.000000 -0.000000 1.000000 400.000000 300.000000)"  >50.00</text>
		 <line x1="225.000000" y1="-35.000000" x2="275.000000" y2="-35.000000" style="stroke:rgb(0,0,0);stroke-width:2" transform="matrix(1.000000 0.000000 -0.000000 1.000000 400.000000 300.000000)" />
		 <line x1="225.000000" y1="-40.000000" x2="225.000000" y2="-30.000000" style="stroke:rgb(0,0,0);stroke-width:2" transform="matrix(1.000000 0.000000 -0.000000 1.000000 400.000000 300.000000)" />
		 <line x1="275.000000" y1="-40.000000" x2="275.000000" y2="-30.000000" style="stroke:rgb(0,0,0);stroke-width:2" transform="matrix(1.000000 0.000000 -0.000000 1.000000 400.000000 300.000000)" />
	<text x="-150.000000" y="-41.000000" dominant-baseline="middle" text-anchor="middle" class="stileannotazioni" transform="matrix(1.000000 0.000000 -0.000000 1.000000 400.000000 300.000000)"  >50.00</text>
		 <line x1="-175.000000" y1="-35.000000" x2="-125.000000" y2="-35.000000" style="stroke:rgb(0,0,0);stroke-width:2" transform="matrix(1.000000 0.000000 -0.000000 1.000000 400.000000 300.000000)" />
		 <line x1="-175.000000" y1="-40.000000" x2="-175.000000" y2="-30.000000" style="stroke:rgb(0,0,0);stroke-width:2" transform="matrix(1.000000 0.000000 -0.000000 1.000000 400.000000 300.000000)" />
		 <line x1="-125.000000" y1="-40.000000" x2="-125.000000" y2="-30.000000" style="stroke:rgb(0,0,0);stroke-width:2" transform="matrix(1.000000 0.000000 -0.000000 1.000000 400.000000 300.000000)" />
	<text x="0.000000" y="54.000000" dominant-baseline="middle" text-anchor="middle" class="stileannotazioni" transform="matrix(1.000000 0.000000 -0.000000 1.000000 400.000000 300.000000)"  >500.00</text>
		 <line x1="-250.000000" y1="60.000000" x2="250.000000" y2="60.000000" style="stroke:rgb(0,0,0);stroke-width:2" transform="matrix(1.000000 0.000000 -0.000000 1.000000 400.000000 300.000000)" />
		 <line x1="-250.000000" y1="55.000000" x2="-250.000000" y2="65.000000" style="stroke:rgb(0,0,0);stroke-width:2" transform="matrix(1.000000 0.000000 -0.000000 1.000000 400.000000 300.000000)" />
		 <line x1="250.000000" y1="55.000000" x2="250.000000" y2="65.000000" style="stroke:rgb(0,0,0);stroke-width:2" transform="matrix(1.000000 0.000000 -0.000000 1.000000 400.000000 300.000000)" />
	<text x="-200.000000" y="34.000000" dominant-baseline="middle" text-anchor="middle" class="stileannotazioni" transform="matrix(1.000000 0.000000 -0.000000 1.000000 400.000000 300.000000)"  >100.00</text>
		 <line x1="-250.000000" y1="40.000000" x2="-150.000000" y2="40.000000" style="stroke:rgb(0,0,0);stroke-width:2" transform="matrix(1.000000 0.000000 -0.000000 1.000000 400.000000 300.000000)" />
		 <line x1="-250.000000" y1="35.000000" x2="-250.000000" y2="45.000000" style="stroke:rgb(0,0,0);stroke-width:2" transform="matrix(1.000000 0.000000 -0.000000 1.000000 400.000000 300.000000)" />
		 <line x1="-150.000000" y1="35.000000" x2="-150.000000" y2="45.000000" style="stroke:rgb(0,0,0);stroke-width:2" transform="matrix(1.000000 0.000000 -0.000000 1.000000 400.000000 300.000000)" />
	<text x="288.000000" y="0.000000" dominant-baseline="middle" class="stileannotazioni" transform="matrix(1.000000 0.000000 -0.000000 1.000000 400.000000 300.000000)"  >16.67</text>
		 <line x1="285.000000" y1="-8.333333" x2="285.000000" y2="8.333333" style="stroke:rgb(0,0,0);stroke-width:2" transform="matrix(1.000000 0.000000 -0.000000 1.000000 400.000000 300.000000)" />
		 <line x1="280.000000" y1="-8.333333" x2="290.000000" y2="-8.333333" style="stroke:rgb(0,0,0);stroke-width:2" transform="matrix(1.000000 0.000000 -0.000000 1.000000 400.000000 300.000000)" />
		 <line x1="280.000000" y1="8.333333" x2="290.000000" y2="8.333333" style="stroke:rgb(0,0,0);stroke-width:2" transform="matrix(1.000000 0.000000 -0.000000 1.000000 400.000000 300.000000)" />
	<text x="338.000000" y="0.000000" dominant-baseline="middle" class="stileannotazioni" transform="matrix(1.000000 0.000000 -0.000000 1.000000 400.000000 300.000000)"  >50.00</text>
		 <line x1="335.000000" y1="-25.000000" x2="335.000000" y2="25.000000" style="stroke:rgb(0,0,0);stroke-width:2" transform="matrix(1.000000 0.000000 -0.000000 1.000000 400.000000 300.000000)" />
		 <line x1="330.000000" y1="-25.000000" x2="340.000000" y2="-25.000000" style="stroke:rgb(0,0,0);stroke-width:2" transform="matrix(1.000000 0.000000 -0.000000 1.000000 400.000000 300.000000)" />
		 <line x1="330.000000" y1="25.000000" x2="340.000000" y2="25.000000" style="stroke:rgb(0,0,0);stroke-width:2" transform="matrix(1.000000 0.000000 -0.000000 1.000000 400.000000 300.000000)" />
	<text x="-112.000000" y="0.000000" dominant-baseline="middle" class="stileannotazioni" transform="matrix(1.000000 0.000000 -0.000000 1.000000 400.000000 300.000000)"  >50.00</text>
		 <line x1="-115.000000" y1="-25.000000" x2="-115.000000" y2="25.000000" style="stroke:rgb(0,0,0);stroke-width:2" transform="matrix(1.000000 0.000000 -0.000000 1.000000 400.000000 300.000000)" />
		 <line x1="-120.000000" y1="-25.000000" x2="-110.000000" y2="-25.000000" style="stroke:rgb(0,0,0);stroke-width:2" transform="matrix(1.000000 0.000000 -0.000000 1.000000 400.000000 300.000000)" />
		 <line x1="-120.000000" y1="25.000000" x2="-110.000000" y2="25.000000" style="stroke:rgb(0,0,0);stroke-width:2" transform="matrix(1.000000 0.000000 -0.000000 1.000000 400.000000 300.000000)" />
</svg>